<svg width="128" height="128" version="1.0" xmlns="http://www.w3.org/2000/svg">
 <defs>
  <style id="current-color-scheme" type="text/css">.ColorScheme-Text {
        color:#c8cdd8;
      }
      .ColorScheme-Background{
        color:#161a24;
      }
      .ColorScheme-ViewText {
        color:#c8cdd8;
      }
      .ColorScheme-ViewBackground{
        color:#131620;
      }
      .ColorScheme-ViewHover {
        color:#4a9eff;
      }
      .ColorScheme-ViewFocus{
        color:#4a9eff;
      }
      .ColorScheme-ButtonText {
        color:#c8cdd8;
      }
      .ColorScheme-ButtonBackground{
        color:#161a24;
      }
      .ColorScheme-ButtonHover {
        color:#4a9eff;
      }
      .ColorScheme-ButtonFocus{
        color:#4a9eff;
      }</style>
 </defs>
 <g id="border-top" transform="matrix(.14444 0 0 1 7.6889 -99.922)">
  <rect class="ColorScheme-Text" transform="scale(1,-1)" x="16" y="-109" width="747.71" height="1" fill="currentColor" opacity=".15"/>
  <rect transform="scale(1,-1)" x="16" y="-110" width="747.71" height="1" opacity="0"/>
 </g>
 <rect id="border-center" x="33.5" y="33.5" width="64.25" height="61.5" fill-opacity="0" opacity=".6"/>
 <rect id="border-topleft" transform="scale(-1)" x="-10.873" y="-11.226" width="8.582" height="9.2107" fill-opacity="0" opacity=".6"/>
 <rect id="border-bottomleft" transform="scale(-1)" x="-10.873" y="-126.84" width="8.582" height="9.2107" fill-opacity="0" opacity=".6"/>
 <rect id="border-topright" transform="scale(-1)" x="-126.13" y="-11.226" width="8.582" height="9.2107" fill-opacity="0" opacity=".6"/>
 <rect id="border-bottomright" transform="scale(-1)" x="-126.13" y="-126.84" width="8.582" height="9.2107" fill-opacity="0" opacity=".6"/>
 <g id="border-left" transform="matrix(0 -.14444 1 0 -100.15 123.02)">
  <rect class="ColorScheme-Text" transform="scale(1,-1)" x="16" y="-109" width="747.71" height="1" fill="currentColor" opacity=".15"/>
  <rect transform="scale(1,-1)" x="16" y="-110" width="747.71" height="1" opacity="0"/>
 </g>
 <g id="border-bottom" transform="matrix(-.14444 0 0 -1 118.9 231.57)">
  <rect class="ColorScheme-Text" transform="scale(1,-1)" x="16" y="-109" width="747.71" height="1" fill="currentColor" opacity=".15"/>
  <rect transform="scale(1,-1)" x="16" y="-110" width="747.71" height="1" opacity="0"/>
 </g>
 <g id="border-right" transform="matrix(0 .14444 -1 0 227.8 12.164)">
  <rect class="ColorScheme-Text" transform="scale(1,-1)" x="16" y="-109" width="747.71" height="1" fill="currentColor" opacity=".15"/>
  <rect transform="scale(1,-1)" x="16" y="-110" width="747.71" height="1" opacity="0"/>
 </g>
</svg>
